<svg width="30" height="30" viewBox="0 0 30 30" fill="none" xmlns="http://www.w3.org/2000/svg">
<path fill-rule="evenodd" clip-rule="evenodd" d="M15.4392 11.5606C15.158 11.2793 15 10.8979 15 10.5001C15 10.1024 15.158 9.72091 15.4392 9.43962L19.9392 4.93962C20.0775 4.79636 20.2431 4.68208 20.4261 4.60347C20.6091 4.52486 20.8059 4.48348 21.0051 4.48175C21.2042 4.48002 21.4018 4.51797 21.5861 4.59339C21.7705 4.66881 21.9379 4.78019 22.0788 4.92103C22.2196 5.06187 22.331 5.22935 22.4064 5.41369C22.4818 5.59803 22.5198 5.79555 22.5181 5.99472C22.5163 6.19389 22.4749 6.39072 22.3963 6.57373C22.3177 6.75673 22.2034 6.92225 22.0602 7.06062L17.5602 11.5606C17.2789 11.8418 16.8974 11.9998 16.4997 11.9998C16.1019 11.9998 15.7205 11.8418 15.4392 11.5606Z" fill="#EB61A1"/>
<path fill-rule="evenodd" clip-rule="evenodd" d="M26.5596 11.5606C26.2784 11.8418 25.8969 11.9998 25.4991 11.9998C25.1014 11.9998 24.7199 11.8418 24.4386 11.5606L19.9386 7.06062C19.6654 6.77772 19.5142 6.39882 19.5176 6.00552C19.5211 5.61223 19.6788 5.23601 19.9569 4.95789C20.235 4.67978 20.6112 4.52203 21.0045 4.51861C21.3978 4.51519 21.7767 4.66639 22.0596 4.93962L26.5596 9.43962C26.8409 9.72092 26.9988 10.1024 26.9988 10.5001C26.9988 10.8979 26.8409 11.2793 26.5596 11.5606Z" fill="#EB61A1"/>
<path fill-rule="evenodd" clip-rule="evenodd" d="M20.9991 7.5C21.397 7.5 21.7785 7.65804 22.0598 7.93934C22.3411 8.22064 22.4991 8.60218 22.4991 9V21C22.4991 21.3978 22.3411 21.7794 22.0598 22.0607C21.7785 22.342 21.397 22.5 20.9991 22.5C20.6013 22.5 20.2198 22.342 19.9385 22.0607C19.6572 21.7794 19.4991 21.3978 19.4991 21V9C19.4991 8.60218 19.6572 8.22064 19.9385 7.93934C20.2198 7.65804 20.6013 7.5 20.9991 7.5ZM14.5596 18.4395C14.8409 18.7208 14.9988 19.1023 14.9988 19.5C14.9988 19.8977 14.8409 20.2792 14.5596 20.5605L10.0596 25.0605C9.77674 25.3337 9.39784 25.4849 9.00454 25.4815C8.61125 25.4781 8.23503 25.3203 7.95692 25.0422C7.67881 24.7641 7.52105 24.3879 7.51763 23.9946C7.51422 23.6013 7.66541 23.2224 7.93865 22.9395L12.4386 18.4395C12.7199 18.1583 13.1014 18.0003 13.4991 18.0003C13.8969 18.0003 14.2784 18.1583 14.5596 18.4395Z" fill="#EB61A1"/>
<path fill-rule="evenodd" clip-rule="evenodd" d="M3.43918 18.4397C3.72047 18.1585 4.10193 18.0005 4.49968 18.0005C4.89743 18.0005 5.27889 18.1585 5.56018 18.4397L10.0602 22.9397C10.2034 23.078 10.3177 23.2436 10.3963 23.4266C10.4749 23.6096 10.5163 23.8064 10.5181 24.0056C10.5198 24.2047 10.4818 24.4023 10.4064 24.5866C10.331 24.7709 10.2196 24.9384 10.0788 25.0793C9.93793 25.2201 9.77045 25.3315 9.58611 25.4069C9.40176 25.4823 9.20425 25.5203 9.00508 25.5185C8.80591 25.5168 8.60908 25.4754 8.42607 25.3968C8.24307 25.3182 8.07755 25.2039 7.93918 25.0607L3.43918 20.5607C3.15797 20.2794 3 19.8979 3 19.5002C3 19.1024 3.15797 18.721 3.43918 18.4397Z" fill="#EB61A1"/>
<path fill-rule="evenodd" clip-rule="evenodd" d="M9 22.5C8.60217 22.5 8.22064 22.342 7.93934 22.0607C7.65804 21.7794 7.5 21.3978 7.5 21V9C7.5 8.60218 7.65804 8.22064 7.93934 7.93934C8.22064 7.65804 8.60217 7.5 9 7.5C9.39782 7.5 9.77935 7.65804 10.0607 7.93934C10.342 8.22064 10.5 8.60218 10.5 9V21C10.5 21.3978 10.342 21.7794 10.0607 22.0607C9.77935 22.342 9.39782 22.5 9 22.5Z" fill="#EB61A1"/>
</svg>
