<svg width="30" height="30" viewBox="0 0 30 30" fill="none" xmlns="http://www.w3.org/2000/svg">
<path d="M10.9377 6.07636C10.6154 6.07636 10.3063 6.20439 10.0784 6.4323C9.85048 6.66021 9.72244 6.96932 9.72244 7.29163C9.72244 7.61395 9.85048 7.92306 10.0784 8.15096C10.3063 8.37887 10.6154 8.50691 10.9377 8.50691C11.26 8.50691 11.5691 8.37887 11.797 8.15096C12.025 7.92306 12.153 7.61395 12.153 7.29163C12.153 6.96932 12.025 6.66021 11.797 6.4323C11.5691 6.20439 11.26 6.07636 10.9377 6.07636ZM7.49848 6.07636C7.74956 5.36477 8.21518 4.74858 8.83115 4.31273C9.44713 3.87688 10.1831 3.64282 10.9377 3.64282C11.6923 3.64282 12.4283 3.87688 13.0443 4.31273C13.6603 4.74858 14.1259 5.36477 14.377 6.07636H23.0905C23.4128 6.07636 23.7219 6.20439 23.9498 6.4323C24.1777 6.66021 24.3058 6.96932 24.3058 7.29163C24.3058 7.61395 24.1777 7.92306 23.9498 8.15096C23.7219 8.37887 23.4128 8.50691 23.0905 8.50691H14.377C14.1259 9.2185 13.6603 9.83468 13.0443 10.2705C12.4283 10.7064 11.6923 10.9404 10.9377 10.9404C10.1831 10.9404 9.44713 10.7064 8.83115 10.2705C8.21518 9.83468 7.74956 9.2185 7.49848 8.50691H6.07661C5.75429 8.50691 5.44518 8.37887 5.21727 8.15096C4.98937 7.92306 4.86133 7.61395 4.86133 7.29163C4.86133 6.96932 4.98937 6.66021 5.21727 6.4323C5.44518 6.20439 5.75429 6.07636 6.07661 6.07636H7.49848ZM18.2294 13.368C17.9071 13.368 17.598 13.4961 17.3701 13.724C17.1421 13.9519 17.0141 14.261 17.0141 14.5833C17.0141 14.9056 17.1421 15.2147 17.3701 15.4426C17.598 15.6705 17.9071 15.7986 18.2294 15.7986C18.5517 15.7986 18.8608 15.6705 19.0887 15.4426C19.3166 15.2147 19.4447 14.9056 19.4447 14.5833C19.4447 14.261 19.3166 13.9519 19.0887 13.724C18.8608 13.4961 18.5517 13.368 18.2294 13.368ZM14.7901 13.368C15.0412 12.6564 15.5068 12.0403 16.1228 11.6044C16.7388 11.1685 17.4748 10.9345 18.2294 10.9345C18.984 10.9345 19.72 11.1685 20.3359 11.6044C20.9519 12.0403 21.4175 12.6564 21.6686 13.368H23.0905C23.4128 13.368 23.7219 13.4961 23.9498 13.724C24.1777 13.9519 24.3058 14.261 24.3058 14.5833C24.3058 14.9056 24.1777 15.2147 23.9498 15.4426C23.7219 15.6705 23.4128 15.7986 23.0905 15.7986H21.6686C21.4175 16.5102 20.9519 17.1263 20.3359 17.5622C19.72 17.9981 18.984 18.2321 18.2294 18.2321C17.4748 18.2321 16.7388 17.9981 16.1228 17.5622C15.5068 17.1263 15.0412 16.5102 14.7901 15.7986H6.07661C5.75429 15.7986 5.44518 15.6705 5.21727 15.4426C4.98937 15.2147 4.86133 14.9056 4.86133 14.5833C4.86133 14.261 4.98937 13.9519 5.21727 13.724C5.44518 13.4961 5.75429 13.368 6.07661 13.368H14.7901ZM10.9377 20.6597C10.6154 20.6597 10.3063 20.7877 10.0784 21.0156C9.85048 21.2435 9.72244 21.5527 9.72244 21.875C9.72244 22.1973 9.85048 22.5064 10.0784 22.7343C10.3063 22.9622 10.6154 23.0902 10.9377 23.0902C11.26 23.0902 11.5691 22.9622 11.797 22.7343C12.025 22.5064 12.153 22.1973 12.153 21.875C12.153 21.5527 12.025 21.2435 11.797 21.0156C11.5691 20.7877 11.26 20.6597 10.9377 20.6597ZM7.49848 20.6597C7.74956 19.9481 8.21518 19.3319 8.83115 18.8961C9.44713 18.4602 10.1831 18.2262 10.9377 18.2262C11.6923 18.2262 12.4283 18.4602 13.0443 18.8961C13.6603 19.3319 14.1259 19.9481 14.377 20.6597H23.0905C23.4128 20.6597 23.7219 20.7877 23.9498 21.0156C24.1777 21.2435 24.3058 21.5527 24.3058 21.875C24.3058 22.1973 24.1777 22.5064 23.9498 22.7343C23.7219 22.9622 23.4128 23.0902 23.0905 23.0902H14.377C14.1259 23.8018 13.6603 24.418 13.0443 24.8539C12.4283 25.2897 11.6923 25.5238 10.9377 25.5238C10.1831 25.5238 9.44713 25.2897 8.83115 24.8539C8.21518 24.418 7.74956 23.8018 7.49848 23.0902H6.07661C5.75429 23.0902 5.44518 22.9622 5.21727 22.7343C4.98937 22.5064 4.86133 22.1973 4.86133 21.875C4.86133 21.5527 4.98937 21.2435 5.21727 21.0156C5.44518 20.7877 5.75429 20.6597 6.07661 20.6597H7.49848Z" fill="#EB61A1"/>
</svg>
