<svg width="49" height="17" viewBox="0 0 49 17" fill="none" xmlns="http://www.w3.org/2000/svg">
<path d="M46.9888 1.27246H13.8979L2.44336 8.90882L13.8979 15.2725H46.9888V1.27246Z" stroke="black" stroke-width="2.54545"/>
<path d="M18.0123 11.2725V4.72701H20.633C21.1145 4.72701 21.5162 4.79838 21.8379 4.94114C22.1596 5.0839 22.4015 5.28205 22.5634 5.5356C22.7253 5.78702 22.8063 6.07679 22.8063 6.40492C22.8063 6.6606 22.7551 6.88539 22.6529 7.07928C22.5506 7.27104 22.41 7.42871 22.231 7.55229C22.0542 7.67374 21.8517 7.76003 21.6238 7.81117V7.87509C21.873 7.88574 22.1064 7.95605 22.3237 8.08603C22.5431 8.216 22.7211 8.39817 22.8574 8.63255C22.9938 8.86479 23.062 9.14178 23.062 9.46351C23.062 9.81081 22.9757 10.1208 22.8031 10.3936C22.6326 10.6642 22.3801 10.8783 22.0456 11.036C21.7111 11.1936 21.2988 11.2725 20.8088 11.2725H18.0123ZM19.3961 10.1411H20.5243C20.91 10.1411 21.1912 10.0676 21.3681 9.92054C21.5449 9.7714 21.6333 9.57324 21.6333 9.32608C21.6333 9.14498 21.5897 8.98517 21.5023 8.84668C21.415 8.70819 21.2903 8.59952 21.1284 8.52069C20.9686 8.44185 20.7779 8.40243 20.5563 8.40243H19.3961V10.1411ZM19.3961 7.466H20.4221C20.6117 7.466 20.78 7.43297 20.927 7.36692C21.0762 7.29874 21.1934 7.20286 21.2786 7.07928C21.3659 6.9557 21.4096 6.80762 21.4096 6.63503C21.4096 6.39853 21.3255 6.20783 21.1571 6.06294C20.9909 5.91806 20.7544 5.84561 20.4476 5.84561H19.3961V7.466ZM25.3367 11.3651C25.0235 11.3651 24.7444 11.3108 24.4994 11.2021C24.2544 11.0914 24.0605 10.9284 23.9177 10.7132C23.7771 10.4958 23.7068 10.2252 23.7068 9.90137C23.7068 9.62864 23.7568 9.39959 23.857 9.21422C23.9571 9.02885 24.0935 8.87971 24.2661 8.76678C24.4387 8.65385 24.6347 8.56863 24.8541 8.5111C25.0757 8.45357 25.308 8.41309 25.5509 8.38965C25.8364 8.35982 26.0665 8.33212 26.2412 8.30655C26.4159 8.27885 26.5427 8.23837 26.6215 8.1851C26.7004 8.13184 26.7398 8.053 26.7398 7.9486V7.92942C26.7398 7.72701 26.6759 7.5704 26.548 7.45961C26.4223 7.34881 26.2433 7.29341 26.0111 7.29341C25.7661 7.29341 25.5711 7.34774 25.4262 7.45641C25.2813 7.56294 25.1855 7.69718 25.1386 7.85911L23.8794 7.75684C23.9433 7.45854 24.069 7.20073 24.2565 6.9834C24.444 6.76394 24.6858 6.59561 24.982 6.47843C25.2803 6.35911 25.6254 6.29945 26.0175 6.29945C26.2902 6.29945 26.5512 6.33141 26.8005 6.39533C27.0519 6.45925 27.2746 6.55833 27.4685 6.69256C27.6645 6.82679 27.819 6.99938 27.9319 7.21032C28.0448 7.41912 28.1013 7.66948 28.1013 7.96138V11.2725H26.8101V10.5917H26.7718C26.6929 10.7451 26.5874 10.8804 26.4553 10.9976C26.3232 11.1127 26.1645 11.2032 25.9791 11.2693C25.7938 11.3332 25.5796 11.3651 25.3367 11.3651ZM25.7267 10.4255C25.9269 10.4255 26.1038 10.3861 26.2572 10.3073C26.4106 10.2263 26.531 10.1176 26.6183 9.98127C26.7057 9.8449 26.7494 9.69043 26.7494 9.51784V8.99689C26.7068 9.02459 26.6482 9.05016 26.5736 9.0736C26.5012 9.0949 26.4191 9.11515 26.3275 9.13432C26.2359 9.15137 26.1443 9.16735 26.0526 9.18226C25.961 9.19505 25.8779 9.20676 25.8034 9.21742C25.6436 9.24086 25.504 9.27814 25.3847 9.32928C25.2654 9.38042 25.1727 9.44966 25.1066 9.53702C25.0406 9.62225 25.0075 9.72878 25.0075 9.85662C25.0075 10.042 25.0747 10.1837 25.2089 10.2817C25.3453 10.3776 25.5178 10.4255 25.7267 10.4255ZM31.3756 11.3683C30.8728 11.3683 30.4403 11.2618 30.078 11.0487C29.718 10.8335 29.441 10.5352 29.2471 10.1539C29.0553 9.77246 28.9594 9.33354 28.9594 8.83709C28.9594 8.33425 29.0564 7.8932 29.2503 7.51394C29.4463 7.13255 29.7243 6.83532 30.0844 6.62225C30.4445 6.40705 30.8728 6.29945 31.3692 6.29945C31.7975 6.29945 32.1725 6.37722 32.4942 6.53276C32.816 6.6883 33.0706 6.90669 33.2581 7.18794C33.4456 7.46919 33.5489 7.79945 33.5681 8.17871H32.2833C32.2471 7.93368 32.1512 7.73659 31.9957 7.58745C31.8422 7.43617 31.6409 7.36053 31.3916 7.36053C31.1807 7.36053 30.9964 7.41806 30.8387 7.53311C30.6831 7.64604 30.5617 7.81117 30.4743 8.0285C30.387 8.24583 30.3433 8.50897 30.3433 8.81792C30.3433 9.13113 30.3859 9.39746 30.4711 9.61692C30.5585 9.83638 30.681 10.0036 30.8387 10.1187C30.9964 10.2338 31.1807 10.2913 31.3916 10.2913C31.5471 10.2913 31.6867 10.2593 31.8103 10.1954C31.936 10.1315 32.0393 10.0388 32.1203 9.91735C32.2034 9.79377 32.2577 9.64569 32.2833 9.4731H33.5681C33.5468 9.8481 33.4445 10.1784 33.2613 10.4639C33.0802 10.7472 32.8298 10.9688 32.5102 11.1286C32.1906 11.2884 31.8124 11.3683 31.3756 11.3683ZM35.6735 9.85982L35.6767 8.22665H35.8748L37.4473 6.36337H39.0101L36.8975 8.8307H36.5748L35.6735 9.85982ZM34.4398 11.2725V4.72701H35.8013V11.2725H34.4398ZM37.508 11.2725L36.0634 9.13432L36.9711 8.17232L39.1028 11.2725H37.508Z" fill="black"/>
</svg>
