<svg width="52" height="52" viewBox="0 0 52 52" fill="none" xmlns="http://www.w3.org/2000/svg">
<path d="M12.9169 40.9027H19.3752V30.1388C19.3752 29.5289 19.5819 29.018 19.9952 28.6061C20.4086 28.1942 20.9195 27.9875 21.528 27.9861H30.1391C30.7491 27.9861 31.2607 28.1927 31.674 28.6061C32.0874 29.0194 32.2933 29.5303 32.2919 30.1388V40.9027H38.7502V21.5277L25.8335 11.8402L12.9169 21.5277V40.9027ZM8.61133 40.9027V21.5277C8.61133 20.846 8.76417 20.2002 9.06987 19.5902C9.37556 18.9803 9.79679 18.478 10.3336 18.0833L23.2502 8.39578C24.0037 7.82171 24.8648 7.53467 25.8335 7.53467C26.8023 7.53467 27.6634 7.82171 28.4169 8.39578L41.3335 18.0833C41.8717 18.478 42.2937 18.9803 42.5994 19.5902C42.9051 20.2002 43.0572 20.846 43.0558 21.5277V40.9027C43.0558 42.0868 42.6338 43.1007 41.7899 43.9446C40.946 44.7885 39.9328 45.2097 38.7502 45.2083H30.1391C29.5292 45.2083 29.0182 45.0016 28.6063 44.5883C28.1944 44.1749 27.9878 43.664 27.9863 43.0555V32.2916H23.6808V43.0555C23.6808 43.6655 23.4741 44.1771 23.0608 44.5904C22.6474 45.0038 22.1365 45.2097 21.528 45.2083H12.9169C11.7329 45.2083 10.7196 44.7871 9.87716 43.9446C9.03471 43.1021 8.61276 42.0882 8.61133 40.9027Z" fill="black"/>
</svg>
