<svg width="52" height="52" viewBox="0 0 52 52" fill="none" xmlns="http://www.w3.org/2000/svg">
<path d="M24.2997 43.4861C23.7787 43.3067 23.3209 43.0196 22.9262 42.625L19.2127 39.2344C15.4094 35.754 11.9743 32.301 8.90733 28.8752C5.84034 25.4494 4.30612 21.6727 4.30469 17.5451C4.30469 14.1724 5.4349 11.3559 7.69531 9.09546C9.95573 6.83504 12.7723 5.70483 16.145 5.70483C18.0466 5.70483 19.8406 6.10812 21.5269 6.91469C23.2133 7.72127 24.6484 8.82493 25.8325 10.2257C27.0165 8.82636 28.4517 7.72342 30.138 6.91685C31.8244 6.11027 33.6183 5.70627 35.52 5.70483C38.8927 5.70483 41.7092 6.83504 43.9696 9.09546C46.23 11.3559 47.3602 14.1724 47.3602 17.5451C47.3602 21.6713 45.8354 25.4566 42.7856 28.901C39.7358 32.3455 36.2734 35.8078 32.3984 39.2882L28.7387 42.625C28.344 43.0196 27.8869 43.3067 27.3674 43.4861C26.8479 43.6655 26.3362 43.7552 25.8325 43.7552C25.3287 43.7552 24.8178 43.6655 24.2997 43.4861ZM23.7873 14.5312C22.7468 13.0602 21.6346 11.9393 20.4505 11.1686C19.2665 10.3979 17.8313 10.0118 16.145 10.0104C13.9922 10.0104 12.1982 10.728 10.763 12.1632C9.32784 13.5984 8.61024 15.3923 8.61024 17.5451C8.61024 19.4109 9.27402 21.3936 10.6016 23.4932C11.9291 25.5929 13.5171 27.6287 15.3657 29.6007C17.2142 31.5726 19.1158 33.4204 21.0705 35.1441C23.0252 36.8677 24.6126 38.285 25.8325 39.3958C27.0524 38.2835 28.6404 36.8663 30.5966 35.1441C32.5527 33.4219 34.4543 31.574 36.3014 29.6007C38.1485 27.6273 39.7358 25.5915 41.0634 23.4932C42.3909 21.395 43.0547 19.4123 43.0547 17.5451C43.0547 15.3923 42.3371 13.5984 40.9019 12.1632C39.4667 10.728 37.6727 10.0104 35.52 10.0104C33.8336 10.0104 32.3984 10.3965 31.2144 11.1686C30.0304 11.9407 28.9181 13.0616 27.8776 14.5312C27.6264 14.89 27.3215 15.1591 26.9627 15.3385C26.6039 15.5179 26.2271 15.6076 25.8325 15.6076C25.4378 15.6076 25.0611 15.5179 24.7023 15.3385C24.3435 15.1591 24.0385 14.89 23.7873 14.5312Z" fill="black"/>
</svg>
