<svg width="48" height="48" viewBox="0 0 48 48" fill="none" xmlns="http://www.w3.org/2000/svg">
<path fill-rule="evenodd" clip-rule="evenodd" d="M23.6759 43.9972L24.0019 43.9998C23.5604 43.9997 23.119 43.9853 22.6784 43.9567C22.1331 43.921 21.5895 43.8631 21.049 43.7832C20.421 43.6902 19.7978 43.5673 19.1816 43.415C18.5741 43.2646 17.9741 43.0857 17.3835 42.8787L17.3802 42.8775C16.4076 42.5364 15.463 42.1201 14.555 41.6325C13.9106 41.2865 13.2856 40.9054 12.683 40.4908C12.0053 40.0248 11.357 39.5176 10.7415 38.9721C10.5265 38.7815 10.3156 38.5864 10.1089 38.3868C6.34345 34.7497 4.00195 29.6482 4.00195 23.9997C4.00195 12.9541 12.9563 3.99976 24.0019 3.99976C26.6284 3.99974 29.2291 4.51705 31.6556 5.52214C34.0821 6.52722 36.2869 8.00041 38.1441 9.85758C40.0013 11.7147 41.4745 13.9195 42.4796 16.346C43.4847 18.7726 44.002 21.3733 44.002 23.9997C44.002 29.6484 41.6603 34.75 37.8947 38.387C37.8946 38.3872 37.8946 38.3876 37.8947 38.3881C36.9474 39.3025 35.9127 40.1217 34.8053 40.8338L34.7898 40.8437C34.5387 41.005 34.284 41.1606 34.0258 41.3103L33.9985 41.3262C33.5468 41.5873 33.085 41.8306 32.6144 42.0556C32.4301 42.1434 32.2446 42.2285 32.058 42.311C31.8632 42.3966 31.6672 42.4793 31.47 42.5589C31.2787 42.6358 31.0863 42.7098 30.8929 42.7809C30.6974 42.8525 30.5008 42.9212 30.3032 42.9869C30.109 43.0512 29.9138 43.1125 29.7178 43.171C29.51 43.2328 29.3014 43.2912 29.0918 43.3464C28.8878 43.3998 28.6831 43.45 28.4775 43.4971C28.2725 43.5439 28.0667 43.5875 27.8603 43.6279C27.0189 43.7923 26.1678 43.9024 25.3123 43.9575C25.0996 43.9713 24.8868 43.9817 24.6738 43.9887L24.6697 43.9888C24.3385 43.9997 24.0072 44.0025 23.6759 43.9972ZM26.002 31.9998H22.002C18.816 31.9998 16.0297 33.8745 14.7488 36.6157L14.604 36.9477L14.7293 37.0404C17.0089 38.6642 19.7325 39.7053 22.6825 39.9461C22.7705 39.9533 22.8588 39.9598 22.9472 39.9655L22.6947 39.9471C22.7806 39.9541 22.8667 39.9604 22.953 39.9659L22.9472 39.9655C23.0327 39.9712 23.1184 39.9761 23.2041 39.9803L22.953 39.9659C23.0421 39.9717 23.1314 39.9768 23.221 39.981L23.2041 39.9803C23.2684 39.9834 23.3327 39.9861 23.397 39.9885L24.0019 39.9998L24.2527 39.9979C24.3449 39.9965 24.4371 39.9943 24.5293 39.9913L24.2761 39.9974C24.3615 39.996 24.4466 39.9939 24.5316 39.9911L24.5293 39.9912C24.615 39.9885 24.7005 39.985 24.786 39.9809L24.5316 39.9911C24.6197 39.9882 24.7078 39.9847 24.7959 39.9803L24.786 39.9809C24.875 39.9765 24.9637 39.9715 25.0522 39.9659L24.7959 39.9803C24.8826 39.9762 24.9691 39.9713 25.0556 39.9656L25.0523 39.9658C25.1389 39.9602 25.2254 39.9539 25.3116 39.947L25.0555 39.9656C25.1436 39.9599 25.2316 39.9534 25.3196 39.9463L25.3116 39.947C25.3954 39.9401 25.4789 39.9327 25.5623 39.9247L25.3196 39.9463C25.4071 39.9392 25.4944 39.9313 25.5815 39.9228L25.5623 39.9247C28.4138 39.6487 31.0463 38.6242 33.261 37.0501L33.3979 36.9477L33.2552 36.616C32.0304 33.994 29.4277 32.1644 26.4152 32.0103L26.002 31.9998ZM24.0019 7.99979C15.1654 7.99979 8.00198 15.1632 8.00198 23.9997C8.00198 27.8157 9.33783 31.3197 11.5674 34.0694C13.6325 30.4439 17.5318 27.9998 22.002 27.9998H26.002C30.4723 27.9998 34.3716 30.4441 36.4364 34.0691C38.666 31.3197 40.002 27.8157 40.002 23.9997C40.002 15.1632 32.8385 7.99979 24.0019 7.99979ZM24.0019 9.99976C28.4203 9.99976 32.002 13.5815 32.002 17.9997C32.002 22.2841 28.634 25.7819 24.4012 25.99L24.0019 25.9998C19.5837 25.9998 16.002 22.4181 16.002 17.9997C16.002 13.7154 19.3699 10.2175 23.6026 10.0095L24.0019 9.99976ZM24.0019 13.9998C21.7928 13.9998 20.002 15.7906 20.002 17.9997C20.002 20.2089 21.7928 21.9998 24.0019 21.9998C26.211 21.9998 28.002 20.2089 28.002 17.9997C28.002 15.7906 26.211 13.9998 24.0019 13.9998Z" fill="black"/>
</svg>
