<svg width="49" height="49" viewBox="0 0 49 49" fill="none" xmlns="http://www.w3.org/2000/svg">
<g clip-path="url(#clip0_2180_4549)">
<path d="M2.01367 4.02808H10.0692L16.1109 29.0003C16.2992 29.9238 16.8054 30.752 17.5413 31.3407C18.2773 31.9295 19.1964 32.2415 20.1387 32.2225H38.2637C39.206 32.2415 40.1251 31.9295 40.861 31.3407C41.597 30.752 42.1031 29.9238 42.2915 29.0003L46.3192 12.0836H12.0831" stroke="black" stroke-width="4.02778" stroke-linecap="round" stroke-linejoin="round"/>
<path d="M18.1252 44.3059C19.2375 44.3059 20.1391 43.4042 20.1391 42.292C20.1391 41.1797 19.2375 40.2781 18.1252 40.2781C17.013 40.2781 16.1113 41.1797 16.1113 42.292C16.1113 43.4042 17.013 44.3059 18.1252 44.3059Z" stroke="black" stroke-width="4.02778" stroke-linecap="round" stroke-linejoin="round"/>
<path d="M40.2776 44.3059C41.3898 44.3059 42.2914 43.4042 42.2914 42.292C42.2914 41.1797 41.3898 40.2781 40.2776 40.2781C39.1653 40.2781 38.2637 41.1797 38.2637 42.292C38.2637 43.4042 39.1653 44.3059 40.2776 44.3059Z" stroke="black" stroke-width="4.02778" stroke-linecap="round" stroke-linejoin="round"/>
</g>
<defs>
<clipPath id="clip0_2180_4549">
<rect width="48.3333" height="48.3333" fill="white"/>
</clipPath>
</defs>
</svg>
