<svg width="49" height="49" viewBox="0 0 49 49" fill="none" xmlns="http://www.w3.org/2000/svg">
<path d="M40.7806 11.0064H33.9516C33.7523 8.54798 32.635 6.25462 30.8218 4.58247C29.0087 2.91033 26.6325 1.98193 24.166 1.98193C21.6995 1.98193 19.3234 2.91033 17.5102 4.58247C15.697 6.25462 14.5797 8.54798 14.3804 11.0064H7.55143C6.54996 11.0064 5.58951 11.4043 4.88137 12.1124C4.17322 12.8205 3.77539 13.781 3.77539 14.7825V37.4387C3.77539 38.4402 4.17322 39.4006 4.88137 40.1088C5.58951 40.8169 6.54996 41.2148 7.55143 41.2148H40.7806C41.7821 41.2148 42.7425 40.8169 43.4507 40.1088C44.1588 39.4006 44.5566 38.4402 44.5566 37.4387V14.7825C44.5566 13.781 44.1588 12.8205 43.4507 12.1124C42.7425 11.4043 41.7821 11.0064 40.7806 11.0064ZM24.166 6.47517C25.4371 6.4753 26.6656 6.93343 27.6265 7.76562C28.5873 8.59781 29.2161 9.74834 29.3977 11.0064H18.9343C19.1159 9.74834 19.7447 8.59781 20.7055 7.76562C21.6664 6.93343 22.8949 6.4753 24.166 6.47517ZM40.0254 36.6835H8.30664V15.5377H14.3483V17.8033C14.3483 18.4042 14.587 18.9804 15.0119 19.4053C15.4368 19.8302 16.0131 20.0689 16.6139 20.0689C17.2148 20.0689 17.7911 19.8302 18.216 19.4053C18.6409 18.9804 18.8796 18.4042 18.8796 17.8033V15.5377H29.4525V17.8033C29.4525 18.4042 29.6912 18.9804 30.1161 19.4053C30.5409 19.8302 31.1172 20.0689 31.7181 20.0689C32.319 20.0689 32.8952 19.8302 33.3201 19.4053C33.745 18.9804 33.9837 18.4042 33.9837 17.8033V15.5377H40.0254V36.6835Z" fill="black"/>
</svg>
