<svg width="52" height="52" viewBox="0 0 52 52" fill="none" xmlns="http://www.w3.org/2000/svg">
<path fill-rule="evenodd" clip-rule="evenodd" d="M25.8324 4.30566C13.943 4.30566 4.30469 13.9439 4.30469 25.8334C4.30469 37.7228 13.943 47.3613 25.8324 47.3613C37.722 47.3613 47.3603 37.7229 47.3603 25.8334C47.3603 13.9439 37.722 4.30566 25.8324 4.30566ZM25.8324 43.0557C16.3362 43.0557 8.61028 35.3298 8.61028 25.8334C8.61028 16.337 16.3361 8.61125 25.8324 8.61125C35.3289 8.61125 43.0547 16.337 43.0547 25.8334C43.0547 35.3298 35.3289 43.0557 25.8324 43.0557ZM28.5282 17.2223C28.5282 18.7832 27.3917 19.9133 25.8543 19.9133C24.2548 19.9133 23.1462 18.7831 23.1462 17.1925C23.1462 15.6637 24.2848 14.5314 25.8543 14.5314C27.3917 14.5314 28.5282 15.6637 28.5282 17.2223ZM23.6844 23.6807H27.9899V36.5973H23.6844V23.6807Z" fill="black"/>
</svg>
