<svg width="45" height="52" viewBox="0 0 45 52" fill="none" xmlns="http://www.w3.org/2000/svg">
<g clip-path="url(#clip0_2180_4558)">
<path d="M20.452 34.7779C16.5412 34.7779 13.2316 33.423 10.5234 30.7134C7.81524 28.0038 6.46042 24.6942 6.45899 20.7848C6.45755 16.8754 7.81236 13.5658 10.5234 10.8562C13.2345 8.14656 16.544 6.79175 20.452 6.79175C24.36 6.79175 27.6703 8.14656 30.3828 10.8562C33.0953 13.5658 34.4494 16.8754 34.4451 20.7848C34.4451 22.3635 34.1939 23.8525 33.6916 25.2518C33.1893 26.6511 32.5076 27.889 31.6465 28.9654L43.702 41.0209C44.0967 41.4156 44.2941 41.9179 44.2941 42.5279C44.2941 43.1378 44.0967 43.6401 43.702 44.0348C43.3074 44.4295 42.805 44.6268 42.1951 44.6268C41.5851 44.6268 41.0828 44.4295 40.6881 44.0348L28.6326 31.9792C27.5562 32.8404 26.3184 33.5221 24.9191 34.0244C23.5197 34.5267 22.0307 34.7779 20.452 34.7779ZM20.452 30.4723C23.143 30.4723 25.4307 29.5308 27.3151 27.6479C29.1995 25.7649 30.141 23.4772 30.1395 20.7848C30.1381 18.0924 29.1966 15.8054 27.3151 13.9239C25.4336 12.0424 23.1459 11.1002 20.452 11.0973C17.7582 11.0944 15.4712 12.0366 13.5911 13.9239C11.711 15.8112 10.7688 18.0981 10.7645 20.7848C10.7602 23.4715 11.7024 25.7592 13.5911 27.6479C15.4798 29.5366 17.7668 30.478 20.452 30.4723Z" fill="black"/>
</g>
<defs>
<clipPath id="clip0_2180_4558">
<rect width="44.1667" height="51.6667" fill="white"/>
</clipPath>
</defs>
</svg>
