<svg width="29" height="29" viewBox="0 0 29 29" fill="none" xmlns="http://www.w3.org/2000/svg">
<rect x="0.805368" y="0.805368" width="26.5288" height="27.3894" rx="13.2644" stroke="black" stroke-width="1.61074"/>
<path d="M11.3024 9.63901C11.2448 9.24224 11.2733 8.83772 11.3858 8.45292C11.4984 8.06812 11.6924 7.71204 11.9548 7.40885C12.2171 7.10567 12.5416 6.86249 12.9063 6.69581C13.2709 6.52914 13.6671 6.44287 14.0681 6.44287C14.469 6.44287 14.8652 6.52914 15.2299 6.69581C15.5945 6.86249 15.919 7.10567 16.1814 7.40885C16.4437 7.71204 16.6377 8.06812 16.7503 8.45292C16.8629 8.83772 16.8913 9.24224 16.8337 9.63901L15.9059 16.1303C15.8417 16.5719 15.6206 16.9756 15.2831 17.2676C14.9456 17.5595 14.5143 17.7202 14.0681 17.7202C13.6218 17.7202 13.1905 17.5595 12.853 17.2676C12.5155 16.9756 12.2944 16.5719 12.2302 16.1303L11.3024 9.63901ZM15.6788 20.9464C15.6788 21.3736 15.5091 21.7833 15.207 22.0853C14.905 22.3874 14.4953 22.5571 14.0681 22.5571C13.6409 22.5571 13.2312 22.3874 12.9291 22.0853C12.627 21.7833 12.4573 21.3736 12.4573 20.9464C12.4573 20.5192 12.627 20.1095 12.9291 19.8074C13.2312 19.5053 13.6409 19.3356 14.0681 19.3356C14.4953 19.3356 14.905 19.5053 15.207 19.8074C15.5091 20.1095 15.6788 20.5192 15.6788 20.9464Z" fill="black"/>
</svg>
