<svg width="35" height="28" viewBox="0 0 35 28" fill="none" xmlns="http://www.w3.org/2000/svg">
<rect width="34.8666" height="27.3463" rx="3.41829" fill="white"/>
<path d="M5.88296 18.6731H3.74265L7.00386 9.22618H9.57778L12.8344 18.6731H10.6941L8.32772 11.385H8.25392L5.88296 18.6731ZM5.74919 14.9598H10.8048V16.5189H5.74919V14.9598ZM13.5817 18.6731V9.22618H17.3642C18.0592 9.22618 18.6388 9.3292 19.1032 9.53524C19.5675 9.74127 19.9166 10.0273 20.1503 10.3932C20.384 10.7561 20.5009 11.1743 20.5009 11.6479C20.5009 12.0169 20.4271 12.3413 20.2795 12.6212C20.1318 12.8979 19.9289 13.1255 19.6706 13.3039C19.4153 13.4791 19.1232 13.6037 18.7941 13.6775V13.7697C19.1539 13.7851 19.4907 13.8866 19.8043 14.0742C20.1211 14.2618 20.3779 14.5247 20.5747 14.863C20.7715 15.1982 20.8699 15.5979 20.8699 16.0623C20.8699 16.5635 20.7453 17.011 20.4962 17.4046C20.2502 17.7951 19.8858 18.1042 19.403 18.3318C18.9202 18.5593 18.3252 18.6731 17.6179 18.6731H13.5817ZM15.5791 17.0402H17.2074C17.764 17.0402 18.1699 16.9341 18.4251 16.7219C18.6804 16.5066 18.808 16.2207 18.808 15.8639C18.808 15.6025 18.7449 15.3719 18.6189 15.172C18.4928 14.9721 18.3129 14.8153 18.0792 14.7015C17.8485 14.5877 17.5733 14.5308 17.2535 14.5308H15.5791V17.0402ZM15.5791 13.1793H17.0598C17.3334 13.1793 17.5764 13.1316 17.7886 13.0363C18.0038 12.9379 18.173 12.7995 18.296 12.6212C18.4221 12.4428 18.4851 12.2291 18.4851 11.98C18.4851 11.6387 18.3636 11.3634 18.1207 11.1543C17.8808 10.9452 17.5395 10.8406 17.0967 10.8406H15.5791V13.1793ZM23.4081 18.6731H21.2678L24.529 9.22618H27.103L30.3596 18.6731H28.2192L25.8529 11.385H25.7791L23.4081 18.6731ZM23.2744 14.9598H28.3299V16.5189H23.2744V14.9598Z" fill="#748B5C"/>
</svg>
