<svg width="34" height="27" viewBox="0 0 34 27" fill="none" xmlns="http://www.w3.org/2000/svg">
<path d="M27.3403 11.591C27.3403 11.591 27.7823 13.7545 27.8811 14.2081H25.9387C26.1306 13.6905 26.8692 11.6782 26.8692 11.6782C26.8576 11.6957 27.0611 11.149 27.1774 10.8117L27.3403 11.591ZM33.4992 2.7916V23.2634C33.4992 24.8046 32.2488 26.055 30.7076 26.055H2.7916C1.25041 26.055 0 24.8046 0 23.2634V2.7916C0 1.25041 1.25041 0 2.7916 0H30.7076C32.2488 0 33.4992 1.25041 33.4992 2.7916ZM8.86916 17.401L12.5448 8.37481H10.073L7.78741 14.5396L7.53733 13.2892L6.72311 9.13669C6.58935 8.56092 6.17642 8.39808 5.66463 8.37481H1.90178L1.86107 8.5551C2.77997 8.78774 3.60001 9.12506 4.31535 9.54961L6.39743 17.401H8.86916ZM14.3593 17.4126L15.8249 8.37481H13.4869L12.0272 17.4126H14.3593ZM22.4957 14.4582C22.5073 13.4288 21.8792 12.6436 20.5357 11.9981C19.7157 11.5852 19.2155 11.306 19.2155 10.8814C19.2272 10.4976 19.6401 10.1021 20.559 10.1021C21.3209 10.0847 21.8792 10.265 22.2979 10.4453L22.5073 10.5441L22.8272 8.59C22.3677 8.40971 21.6349 8.20615 20.7335 8.20615C18.4246 8.20615 16.802 9.43911 16.7903 11.1955C16.7729 12.4924 17.9535 13.2136 18.8375 13.6498C19.739 14.0918 20.0472 14.3826 20.0472 14.7722C20.0356 15.3771 19.3144 15.6562 18.6456 15.6562C17.7151 15.6562 17.2149 15.5108 16.453 15.1735L16.1448 15.0281L15.8191 17.0579C16.3658 17.3079 17.3777 17.5289 18.4246 17.5406C20.8789 17.5464 22.4782 16.3309 22.4957 14.4582ZM30.7076 17.4126L28.8233 8.37481H27.0146C26.4563 8.37481 26.0317 8.53766 25.7933 9.12506L22.3212 17.4126H24.7755C24.7755 17.4126 25.1768 16.296 25.264 16.0575H28.265C28.3348 16.3774 28.5441 17.4126 28.5441 17.4126H30.7076Z" fill="white"/>
</svg>
