<svg width="52" height="44" viewBox="0 0 52 44" fill="none" xmlns="http://www.w3.org/2000/svg">
<path fill-rule="evenodd" clip-rule="evenodd" d="M13.1754 5.68173C12.7174 5.23934 12.1039 4.99456 11.4672 5.00009C10.8304 5.00563 10.2213 5.26104 9.771 5.71131C9.32072 6.16159 9.06531 6.77071 9.05978 7.40747C9.05424 8.04423 9.29903 8.65769 9.74141 9.11573L22.5958 21.9702L9.74141 34.8246C9.50946 35.0486 9.32445 35.3166 9.19717 35.6129C9.06989 35.9092 9.00289 36.2279 9.00009 36.5503C8.99729 36.8728 9.05874 37.1926 9.18085 37.491C9.30296 37.7895 9.48329 38.0607 9.71131 38.2887C9.93934 38.5167 10.2105 38.697 10.509 38.8192C10.8074 38.9413 11.1272 39.0027 11.4497 38.9999C11.7721 38.9971 12.0908 38.9301 12.3871 38.8028C12.6834 38.6756 12.9514 38.4905 13.1754 38.2586L26.0298 25.4042L38.8843 38.2586C39.3423 38.701 39.9558 38.9458 40.5925 38.9402C41.2293 38.9347 41.8384 38.6793 42.2887 38.229C42.739 37.7787 42.9944 37.1696 42.9999 36.5328C43.0054 35.8961 42.7607 35.2826 42.3183 34.8246L29.4638 21.9702L42.3183 9.11573C42.7607 8.65769 43.0054 8.04423 42.9999 7.40747C42.9944 6.77071 42.739 6.16159 42.2887 5.71131C41.8384 5.26104 41.2293 5.00563 40.5925 5.00009C39.9558 4.99456 39.3423 5.23934 38.8843 5.68173L26.0298 18.5362L13.1754 5.68173Z" fill="black"/>
</svg>
