<svg width="36" height="35" viewBox="0 0 36 35" fill="none" xmlns="http://www.w3.org/2000/svg">
<path d="M32.3876 28.8056H26.9865V32.4062C26.9865 33.0544 26.6445 33.6485 26.0684 33.9726C25.7931 34.1278 25.4818 34.2079 25.1658 34.2048C24.8498 34.2016 24.5401 34.1153 24.268 33.9545L15.6984 28.8056H3.60004C1.61966 28.8056 -0.000656128 27.1852 -0.000656128 25.2049V3.60069C-0.000656128 1.62031 1.61966 0 3.60004 0H32.3876C34.368 0 35.9883 1.62031 35.9883 3.60069V25.2049C35.9883 27.1852 34.368 28.8056 32.3876 28.8056ZM32.3876 3.60069H3.58204V25.2049H16.1845C16.5085 25.2049 16.8326 25.2949 17.1026 25.4569L23.3859 29.2196V27.0052C23.3859 26.015 24.196 25.2049 25.1862 25.2049H32.3876V3.60069Z" fill="black"/>
</svg>
